<svg width="912" height="912" viewBox="0 0 912 912" fill="none" xmlns="http://www.w3.org/2000/svg">
<path fill-rule="evenodd" clip-rule="evenodd" d="M455.524 0C707.103 0 911.048 203.945 911.048 455.524C911.048 707.103 707.103 911.048 455.524 911.048C203.945 911.048 0 707.103 0 455.524C0 203.945 203.945 0 455.524 0Z" fill="#F70A12"/>
<path fill-rule="evenodd" clip-rule="evenodd" d="M587.554 251.492V377.11C587.554 408.669 549.818 415.289 549.818 375.481C549.818 348.527 555.209 278.446 555.209 267.665C555.209 230.425 499.519 226.452 495.91 262.274C495.91 262.274 485.128 380.872 485.128 429.389C485.128 529.702 585.673 510.905 587.554 615.452V659.553C587.554 702.344 652.244 702.344 652.244 659.553V615.452C654.126 510.905 754.669 529.702 754.669 429.389C754.669 380.872 743.888 262.274 743.888 262.274C740.279 226.452 684.589 230.425 684.589 267.665C684.589 278.446 689.979 348.527 689.979 375.481C689.979 415.289 652.244 408.669 652.244 377.11V251.492C652.244 208.702 587.554 208.702 587.554 251.492Z" fill="white"/>
<path fill-rule="evenodd" clip-rule="evenodd" d="M300.412 691.898C318.202 691.898 332.758 677.343 332.758 659.553V615.452C337.345 522.738 399.004 531.815 427.092 472.231C472.451 376.008 393.203 221.533 302.481 219.216C301.788 219.172 301.1 219.15 300.412 219.15C299.725 219.15 299.037 219.172 298.344 219.216C207.623 221.533 128.375 376.008 173.734 472.231C201.821 531.815 263.48 522.738 268.068 615.452V659.553C268.068 677.343 282.623 691.898 300.412 691.898Z" fill="white"/>
<path fill-rule="evenodd" clip-rule="evenodd" d="M444.172 670.297C422.711 664.947 408 647.927 408 624.299C408 597.624 429.624 576 456.299 576C482.975 576 504.599 597.624 504.599 624.299C504.599 652.649 482.474 687.376 454.994 692.182C452.213 692.668 449.626 691.971 447.465 690.156C445.304 688.34 444.172 685.911 444.172 683.089V670.297Z" fill="white"/>
</svg>
