<svg width="5179" height="1031" viewBox="0 0 5179 1031" fill="none" xmlns="http://www.w3.org/2000/svg">
<path fill-rule="evenodd" clip-rule="evenodd" d="M1450.78 814.987C1471.25 830.763 1485.34 858.988 1485.34 883.269C1485.34 936.153 1442.26 979.325 1388.51 979.325H1208.66V675.979H1378.32C1429.13 675.979 1470.57 716.233 1470.57 766.473C1470.57 782.942 1463.13 802.174 1450.78 814.987ZM1618.14 743.204H1516.27V675.979H1791.42V743.204H1689.55V979.325H1618.14V743.204ZM1970.12 674.462C2054.55 674.462 2128.07 743.041 2128.07 827.146C2128.07 911.658 2055.18 980.841 1970.12 980.841C1884.86 980.841 1811.65 911.96 1811.65 827.146C1811.65 742.746 1885.48 674.462 1970.12 674.462ZM2234.99 967.212V1030H2163.58V675.979H2222.97L2227.84 700.137C2252.99 686.035 2285.87 674.462 2312.36 674.462C2350.7 674.462 2385.97 691.955 2411.51 719.745C2438.57 749.192 2453 788.013 2453 827.652C2453 914.823 2385.55 980.841 2297.08 980.841C2276.95 980.841 2254.61 975.137 2234.99 967.212ZM2641.37 674.462C2725.8 674.462 2799.32 743.041 2799.32 827.146C2799.32 911.658 2726.43 980.841 2641.37 980.841C2556.11 980.841 2482.9 911.96 2482.9 827.146C2482.9 742.746 2556.73 674.462 2641.37 674.462ZM2905.42 855.45C2917.09 887.673 2946.48 911.593 2982.59 911.593C3011.48 911.593 3038.44 901.792 3057.28 879.784L3065.39 870.321L3109.24 925.265L3104.19 931.521C3095.21 942.671 3082.11 952.584 3069.69 959.599C3043.18 974.568 3012.96 980.841 2982.59 980.841C2895.96 980.841 2829.22 912.075 2829.22 827.146C2829.22 743.526 2896.14 674.462 2981.57 674.462C3021.48 674.462 3058.98 690.23 3086.61 718.506C3115.19 747.742 3129.85 786.724 3129.85 827.146C3129.85 833.351 3129.61 840.632 3128.73 846.769L3127.48 855.45H2905.42ZM1280.07 856.968V910.077H1388.51C1402.75 910.077 1413.93 896.838 1413.93 883.269C1413.93 869.38 1402.95 856.968 1388.51 856.968H1280.07ZM1280.07 745.227V787.718H1383.93C1387.68 787.263 1391.31 784.495 1393.64 781.736C1397.26 777.469 1399.15 772.021 1399.15 766.473C1399.15 755.517 1389.62 745.227 1378.32 745.227H1280.07ZM1970.12 745.227C1924.72 745.227 1883.07 781.361 1883.07 827.146C1883.07 873.392 1924.09 910.077 1970.12 910.077C2016.24 910.077 2056.65 873.298 2056.65 827.146C2056.65 781.42 2015.59 745.227 1970.12 745.227ZM2302.27 745.227C2276.93 745.707 2255.68 754.967 2234.99 768.326V891.316C2256.26 903.967 2276.68 910.077 2302.17 910.077C2348.9 910.077 2381.58 872.622 2381.58 827.652C2381.58 782.964 2348.74 745.278 2302.27 745.227ZM2641.37 745.227C2595.97 745.227 2554.32 781.361 2554.32 827.146C2554.32 873.392 2595.34 910.077 2641.37 910.077C2687.49 910.077 2727.9 873.298 2727.9 827.146C2727.9 781.42 2686.84 745.227 2641.37 745.227ZM2908.74 788.225H3050.41C3046 777.932 3038.61 768.868 3029.8 761.908C3016.14 751.115 2999.08 745.227 2981.57 745.227C2950.64 745.227 2922.01 761.444 2908.74 788.225Z" fill="#020202"/>
<path fill-rule="evenodd" clip-rule="evenodd" d="M1416.27 338.742H1279.83V574.863H1208.4V271.517H1487.71V574.863H1416.27V338.742ZM1589.86 450.988C1601.53 483.212 1630.93 507.131 1667.06 507.131C1695.95 507.131 1722.92 497.329 1741.77 475.321L1749.87 465.859L1793.74 520.803L1788.69 527.059C1779.7 538.209 1766.6 548.122 1754.18 555.136C1727.66 570.106 1697.44 576.38 1667.06 576.38C1580.4 576.38 1513.65 507.613 1513.65 422.684C1513.65 339.064 1580.58 270 1666.04 270C1705.96 270 1743.46 285.769 1771.11 314.044C1799.69 343.28 1814.35 382.263 1814.35 422.684C1814.35 428.89 1814.12 436.169 1813.23 442.306L1811.98 450.988H1589.86ZM1925.49 562.75V625.302H1854.05V271.517H1913.46L1918.33 295.675C1943.48 281.573 1976.38 270 2002.88 270C2041.23 270 2076.5 287.493 2102.05 315.283C2129.12 344.73 2143.55 383.551 2143.55 423.19C2143.55 510.361 2076.09 576.38 1987.59 576.38C1967.46 576.38 1945.11 570.675 1925.49 562.75ZM2421.87 410.525C2442.35 426.301 2456.44 454.525 2456.44 478.807C2456.44 531.691 2413.34 574.863 2359.59 574.863H2179.68V271.517H2349.4C2400.21 271.517 2441.67 311.77 2441.67 362.01C2441.67 378.479 2434.23 397.713 2421.87 410.525ZM2645.98 270C2730.44 270 2803.98 338.579 2803.98 422.684C2803.98 507.196 2731.07 576.38 2645.98 576.38C2560.7 576.38 2487.48 507.499 2487.48 422.684C2487.48 338.284 2561.33 270 2645.98 270ZM2905.63 450.988C2917.3 483.212 2946.7 507.131 2982.82 507.131C3011.72 507.131 3038.68 497.329 3057.53 475.321L3065.64 465.859L3109.5 520.803L3104.46 527.059C3095.47 538.209 3082.36 548.121 3069.94 555.136C3043.43 570.106 3013.2 576.38 2982.82 576.38C2896.16 576.38 2829.41 507.613 2829.41 422.684C2829.41 339.064 2896.35 270 2981.8 270C3021.72 270 3059.23 285.769 3086.87 314.044C3115.46 343.28 3130.12 382.263 3130.12 422.684C3130.12 428.889 3129.88 436.17 3129 442.307L3127.75 450.988H2905.63ZM1593.18 383.762H1734.9C1730.48 373.469 1723.09 364.406 1714.28 357.446C1700.61 346.653 1683.55 340.764 1666.04 340.764C1635.1 340.764 1606.46 356.981 1593.18 383.762ZM1992.78 340.764C1967.44 341.244 1946.18 350.505 1925.49 363.864V486.855C1946.76 499.505 1967.18 505.614 1992.69 505.614C2039.43 505.614 2072.11 468.16 2072.11 423.19C2072.11 378.502 2039.27 340.815 1992.78 340.764ZM2251.12 452.505V505.614H2359.59C2373.83 505.614 2385.01 492.375 2385.01 478.807C2385.01 464.918 2374.03 452.505 2359.59 452.505H2251.12ZM2251.12 340.764V383.256H2355C2358.75 382.801 2362.38 380.033 2364.72 377.274C2368.33 373.007 2370.23 367.558 2370.23 362.01C2370.23 351.055 2360.69 340.764 2349.4 340.764H2251.12ZM2645.98 340.764C2600.58 340.764 2558.91 376.899 2558.91 422.684C2558.91 468.93 2599.95 505.614 2645.98 505.614C2692.12 505.614 2732.54 468.836 2732.54 422.684C2732.54 376.959 2691.47 340.764 2645.98 340.764ZM2908.95 383.762H3050.66C3046.25 373.469 3038.86 364.406 3030.04 357.446C3016.38 346.653 2999.31 340.764 2981.8 340.764C2950.86 340.764 2922.22 356.981 2908.95 383.762Z" fill="#020202"/>
<path fill-rule="evenodd" clip-rule="evenodd" d="M515.199 0C799.735 0 1030.4 230.663 1030.4 515.199C1030.4 799.735 799.735 1030.4 515.199 1030.4C230.663 1030.4 0 799.735 0 515.199C0 230.663 230.663 0 515.199 0Z" fill="#F70A12"/>
<path fill-rule="evenodd" clip-rule="evenodd" d="M501.485 782.15C477.211 776.099 460.574 756.848 460.574 730.126C460.574 699.956 485.03 675.499 515.2 675.499C545.37 675.499 569.827 699.956 569.827 730.126C569.827 762.189 544.804 801.467 513.723 806.901C510.579 807.451 507.652 806.663 505.208 804.61C502.765 802.557 501.485 799.808 501.485 796.616V782.15ZM339.769 782.538C359.888 782.538 376.35 766.077 376.35 745.956V696.077C381.539 591.217 451.276 601.483 483.043 534.095C534.344 425.265 444.714 250.554 342.107 247.934C341.323 247.883 340.546 247.856 339.769 247.856C338.99 247.856 338.213 247.895 337.43 247.934C234.822 250.554 145.192 425.265 196.495 534.095C228.26 601.483 297.997 591.217 303.186 696.077V745.956C303.186 766.077 319.648 782.538 339.769 782.538ZM664.526 284.439V426.512C664.526 462.206 621.847 469.693 621.847 424.67C621.847 394.185 627.944 314.923 627.944 302.73C627.944 260.611 564.958 256.118 560.877 296.632C560.877 296.632 548.683 430.767 548.683 485.64C548.683 599.094 662.398 577.835 664.526 696.077V745.956C664.526 794.353 737.69 794.353 737.69 745.956V696.077C739.819 577.835 853.534 599.094 853.534 485.64C853.534 430.767 841.34 296.632 841.34 296.632C837.259 256.118 774.273 260.611 774.273 302.73C774.273 314.923 780.37 394.185 780.37 424.67C780.37 469.693 737.69 462.206 737.69 426.512V284.439C737.69 236.042 664.526 236.043 664.526 284.439Z" fill="white"/>
<path fill-rule="evenodd" clip-rule="evenodd" d="M3257.12 270H5178.99V1030.14H3257.12V270Z" fill="#F70A12"/>
<path fill-rule="evenodd" clip-rule="evenodd" d="M4636.76 477.147H5089.96V525.93H4636.76V477.147Z" fill="white"/>
<path fill-rule="evenodd" clip-rule="evenodd" d="M3346.14 373.567V607.747H3483.44C3523.58 607.747 3555.6 574.968 3555.6 534.991C3555.6 515.785 3544.04 493.803 3528.55 482.497L3526.46 480.971L3528.32 479.176C3537.76 470.018 3544.02 455.001 3544.02 441.885C3544.02 403.996 3513.27 373.567 3475.45 373.567H3346.14ZM3394.58 510.211H3483.44C3496.9 510.211 3507.17 521.852 3507.17 534.991C3507.17 547.883 3496.74 560.169 3483.44 560.169H3394.58V510.211ZM3394.58 421.144H3475.45C3486.44 421.144 3495.58 431.088 3495.58 441.885C3495.58 450.527 3489.57 461.623 3480.17 462.625H3480.06H3394.58L3394.58 421.144ZM3626.77 373.567H3587.08V651.202H3635.52V596.157L3638.55 597.451C3653.63 603.893 3671.58 608.951 3688.02 608.951C3755.34 608.951 3806.54 558.029 3806.54 490.66C3806.54 431.366 3762.62 372.354 3700.01 372.354C3678.4 372.354 3652.11 382.582 3633.66 393.439L3631.02 394.987L3626.77 373.567ZM3636.49 440.665C3653.62 429.323 3671.18 421.526 3692.05 421.144C3730.73 421.144 3758.1 453.033 3758.1 490.66C3758.1 528.49 3730.88 560.169 3692.02 560.169C3671.19 560.169 3654.25 555.028 3636.56 544.179L3635.52 543.551V441.309L3636.49 440.665ZM4056.11 509.006L4056.62 505.362C4057.33 500.446 4057.46 495.217 4057.46 490.256C4057.46 426.591 4010.15 372.354 3944.95 372.354C3879.9 372.354 3829.22 425.821 3829.22 490.256C3829.22 555.672 3879.7 608.951 3945.74 608.951C3978.49 608.951 4017.11 597.601 4038.16 571.077L4040.25 568.451L4010.59 530.682L4007.23 534.669C3991.69 553.098 3969.49 561.38 3945.74 561.38C3915.18 561.38 3890.05 540.386 3880.87 511.85L3879.96 509.006H4056.11ZM3883.27 459.992C3893.9 435.6 3918.66 421.144 3944.95 421.144C3969.52 421.144 3995.02 436.468 4003.4 460.134L4004.44 463.037H3881.95L3883.27 459.992ZM4168.89 373.567H4087.34V607.747H4135.78V419.528H4139.73L4177.68 527.143H4241.62L4279.58 419.528H4283.53V607.747H4331.97V373.567H4250.43L4211.67 481.173H4207.25L4168.89 373.567ZM4368.24 560.169V604.14L4391.62 608.951H4392.06C4413.06 608.951 4432.78 597.99 4441.84 578.709L4466.68 525.93H4520.47V607.747H4568.92V373.567H4438.41C4397.01 373.567 4363.45 408.418 4363.45 449.547C4363.45 481.076 4382.69 510.017 4412.35 521.135L4414.53 521.958L4399.77 554.22C4398.22 557.812 4396.3 560.169 4392.06 560.169H4368.24ZM4520.47 477.147H4438.41C4423.37 477.147 4411.88 464.294 4411.88 449.547C4411.88 434.612 4424.31 422.35 4439.21 422.35H4520.47V477.147ZM3449.84 927.79H3483.4C3541.23 919.455 3586.77 869.206 3586.77 810.3C3586.77 745.461 3530.91 692.406 3466.66 692.406C3402.27 692.406 3346.14 745.206 3346.14 810.3C3346.14 869.408 3391.87 919.478 3449.84 927.79ZM3466.66 741.196C3504.47 741.196 3538.34 771.79 3538.34 810.3C3538.34 849.132 3505.01 880.212 3466.66 880.212C3428.39 880.212 3394.58 849.214 3394.58 810.3C3394.58 771.745 3428.9 741.196 3466.66 741.196ZM3708.4 927.79H3743.71C3800.72 919.964 3846.09 875.408 3846.09 816.345C3846.09 753.309 3807.45 704.497 3741.97 704.497C3715.38 704.497 3690.54 713.243 3668.78 728.23L3661.67 733.123L3665.61 725.439C3677.43 702.402 3698.35 691.388 3722.66 685.028C3739.69 680.576 3756.93 676.926 3773.94 672.369C3786.5 669.01 3799.13 664.947 3810.17 657.899L3812.13 656.649V603.736H3775.64L3769.54 622.606L3768.83 623.025C3762.77 626.579 3754.81 628.824 3748.06 630.702C3735.11 634.301 3721.99 637.248 3708.96 640.547C3620.83 662.844 3605.46 728.948 3605.46 810.3C3605.46 870.703 3648.85 919.56 3708.4 927.79ZM3654.46 787.884C3674.85 765.243 3703.63 753.279 3733.98 753.279C3770.43 753.279 3797.65 779.698 3797.65 816.345C3797.65 856.052 3763.19 880.212 3725.98 880.212C3688.01 880.212 3653.9 848.324 3653.9 809.896V788.505L3654.46 787.884ZM4095.66 829.05L4096.18 825.406C4096.88 820.49 4097.03 815.268 4097.03 810.3C4097.03 746.636 4049.72 692.406 3984.5 692.406C3919.45 692.406 3868.78 745.873 3868.78 810.3C3868.78 868.922 3909.79 919.418 3968.33 927.79H4004.07C4031.16 924.326 4060.31 913.066 4077.72 891.121L4079.81 888.502L4050.14 850.733L4046.78 854.721C4031.26 873.149 4009.05 881.424 3985.3 881.424C3954.73 881.424 3929.61 860.437 3920.43 831.893L3919.51 829.05H4095.66ZM3984.5 741.196C4009.08 741.196 4034.57 756.512 4042.97 780.185L4044 783.088H3921.51L3922.83 780.043C3933.45 755.644 3958.22 741.196 3984.5 741.196ZM4346.36 693.618H4153.27V738.368H4180.3L4154.16 867.897C4153.07 873.269 4147.65 881.829 4141.53 881.829H4114.92V927.79C4201.39 927.79 4287.86 927.79 4374.33 927.79V881.829H4346.36V693.618ZM4199.08 881.829L4228.5 738.368H4297.92V881.829H4199.08ZM4466.56 927.79H4500.6C4525.14 924.491 4545.28 914.487 4565.03 899.838L4567.82 897.773L4573.56 927.79H4613.27V788.543C4613.27 726.472 4574.85 692.406 4513.93 692.406C4477.67 692.406 4454.63 699.925 4423.5 717.957L4421.38 719.184V765.37H4461.25L4463.86 747.78L4464.9 747.272C4481.24 739.341 4496.07 738.368 4513.93 738.368C4539.99 738.368 4564.82 752.135 4564.82 780.881V788.303L4561.84 787.09C4536.46 776.803 4509.09 774.626 4481.96 774.626C4436.23 774.626 4401.81 805.16 4401.81 851.81C4401.81 891.682 4427.36 921.498 4466.56 927.79ZM4564.15 849.446C4543.61 868.929 4519.21 884.649 4489.96 884.649C4469.98 884.649 4449.05 874.361 4449.05 851.81C4449.05 829.229 4464.8 818.98 4485.96 818.98C4511.16 818.98 4540.4 822.586 4563.54 832.941L4564.82 833.517V848.802L4564.15 849.446ZM4716.67 927.79H4765.1V739.58H4845.02V693.618H4636.75V739.58H4716.67V927.79ZM4924.94 693.618H4876.5V927.79H5013.79C5056.15 927.79 5089.96 893.193 5089.96 851.002C5089.96 808.916 5055.84 775.022 5013.79 775.022H4924.94V693.618ZM4924.94 880.212V822.601H5013.79C5029.83 822.601 5042.72 834.811 5042.72 851.002C5042.72 867.081 5029.95 880.212 5013.79 880.212H4924.94Z" fill="white"/>
</svg>
