<svg width="1383" height="268" viewBox="0 0 1383 268" fill="none" xmlns="http://www.w3.org/2000/svg">
<path fill-rule="evenodd" clip-rule="evenodd" d="M133.737 0C207.597 0 267.473 59.876 267.473 133.737C267.473 207.598 207.597 267.473 133.737 267.473C59.876 267.473 0 207.598 0 133.737C0 59.876 59.876 0 133.737 0Z" fill="#F70A12"/>
<path fill-rule="evenodd" clip-rule="evenodd" d="M304.622 252.812V252.21C304.622 249.325 302.213 247.961 299.699 247.961C297.886 247.961 296.457 248.066 294.848 248.89L294.585 250.729H290.457V245.823L290.717 245.666C292.011 244.89 293.311 244.194 294.74 243.733C296.36 243.211 298.008 243.032 299.699 243.032C305.741 243.032 309.612 246.542 309.612 252.995V267.379H305.502L304.95 264.382C303.97 265.151 302.949 265.833 301.816 266.361C300.134 267.143 298.383 267.503 296.542 267.503C294.351 267.503 292.226 266.797 290.662 265.152C289.221 263.638 288.523 261.598 288.523 259.482C288.523 257.366 289.221 255.325 290.662 253.812C292.226 252.167 294.351 251.461 296.542 251.461C299.31 251.461 302.065 251.699 304.622 252.812ZM444.877 251.261C447.08 251.261 448.867 253.047 448.867 255.25C448.867 257.454 447.08 259.24 444.877 259.24C442.674 259.24 440.888 257.454 440.888 255.25C440.888 253.047 442.674 251.261 444.877 251.261ZM480.149 259.787L482.877 263.368L482.55 263.71C481.809 264.487 480.787 265.192 479.866 265.703C477.66 266.925 475.205 267.507 472.711 267.507C469.614 267.507 466.626 266.325 464.396 264.074C462.077 261.732 460.903 258.574 460.903 255.229C460.903 251.904 462.088 248.773 464.397 246.454C466.629 244.212 469.618 243.032 472.711 243.032C474.795 243.032 476.884 243.424 478.821 244.23C479.655 244.576 480.466 244.995 481.209 245.521L481.44 245.683V250.606H477.691L477.087 249.116C475.707 248.537 474.194 248.251 472.711 248.251C468.824 248.251 465.893 251.134 465.893 255.229C465.893 257.174 466.525 259.015 467.892 260.373C469.19 261.662 470.93 262.289 472.711 262.289C474.481 262.289 476.268 261.907 477.798 260.95C478.207 260.695 478.598 260.398 478.949 260.062C479.043 259.971 479.133 259.878 479.222 259.782C479.249 259.752 479.276 259.722 479.304 259.694C479.568 259.424 479.987 259.489 480.149 259.787ZM492.633 248.085H484.741V243.156H505.514V248.085H497.622V267.383H492.633V248.085ZM519.281 243.032C525.671 243.032 531.245 248.511 531.245 255.229C531.245 261.98 525.72 267.507 519.281 267.507C512.826 267.507 507.276 262.004 507.276 255.229C507.276 248.487 512.874 243.032 519.281 243.032ZM550.805 248.085H544.137L541.106 263.354C540.579 266.006 537.907 267.507 535.466 267.507H535.412L533.01 266.994V262.289H535.466C535.696 262.289 535.945 262.151 536.117 261.999C536.376 261.77 536.543 261.457 536.611 261.112L539.167 248.085H536.916V243.156H555.795V267.383H550.805V248.085ZM571.016 243.032C577.407 243.032 582.98 248.511 582.98 255.229C582.98 261.98 577.456 267.507 571.016 267.507C564.561 267.507 559.012 262.004 559.012 255.229C559.012 248.487 564.61 243.032 571.016 243.032ZM604.23 254.268C604.924 254.77 605.518 255.472 605.958 256.185C606.616 257.252 607.056 258.539 607.056 259.815C607.056 263.982 603.841 267.383 599.826 267.383H586.165V243.156H599.037C602.824 243.156 605.912 246.319 605.912 250.27C605.912 251.641 605.272 253.287 604.23 254.268ZM625.93 252.814V252.212C625.93 249.326 623.52 247.962 621.006 247.962C619.193 247.962 617.765 248.067 616.156 248.891L615.893 250.73H611.764V245.824L612.025 245.667C613.318 244.89 614.618 244.195 616.048 243.734C617.668 243.211 619.315 243.032 621.006 243.032C627.049 243.032 630.919 246.543 630.919 252.997V267.383H626.809L626.257 264.385C625.278 265.155 624.257 265.837 623.123 266.365C621.441 267.148 619.69 267.507 617.85 267.507C615.659 267.507 613.534 266.801 611.97 265.156C610.529 263.642 609.831 261.601 609.831 259.485C609.831 257.368 610.529 255.328 611.97 253.813C613.534 252.168 615.659 251.462 617.85 251.462C620.618 251.462 623.373 251.701 625.93 252.814ZM639.702 258.539C636.701 257.428 634.694 254.409 634.694 251.055C634.694 246.77 638.063 243.156 642.2 243.156H655.191V267.383H650.201V258.995H645.056L642.633 264.344C641.72 266.358 639.737 267.507 637.623 267.507H637.57L635.167 266.994V262.289H637.623C637.99 262.289 638.148 262.084 638.288 261.747H638.29L639.702 258.539ZM519.281 248.251C515.613 248.251 512.266 251.33 512.266 255.229C512.266 259.164 515.566 262.289 519.281 262.289C523.004 262.289 526.256 259.156 526.256 255.229C526.256 251.335 522.954 248.251 519.281 248.251ZM571.016 248.251C567.349 248.251 564.001 251.33 564.001 255.229C564.001 259.164 567.301 262.289 571.016 262.289C574.739 262.289 577.991 259.156 577.991 255.229C577.991 251.335 574.689 248.251 571.016 248.251ZM591.155 257.383V262.289H599.826C601.08 262.289 602.067 261.08 602.067 259.815C602.067 258.524 601.096 257.383 599.826 257.383H591.155ZM591.155 248.251V252.288H599.487C599.856 252.248 600.201 251.986 600.432 251.698C600.753 251.299 600.922 250.79 600.922 250.27C600.922 249.218 600.062 248.251 599.037 248.251H591.155ZM625.93 259.129V257.68C623.648 256.6 620.697 256.226 618.244 256.226C617.246 256.226 616.177 256.454 615.469 257.242C614.923 257.849 614.702 258.668 614.702 259.485C614.702 260.334 615.042 261.124 615.639 261.7C616.445 262.476 617.568 262.743 618.639 262.743C621.518 262.743 623.915 261.122 625.93 259.129ZM650.201 253.776V248.375H642.279C640.868 248.375 639.684 249.58 639.684 251.055C639.684 252.513 640.777 253.776 642.2 253.776H650.201ZM331.804 259.783L334.532 263.365L334.205 263.707C333.463 264.483 332.44 265.188 331.52 265.698C329.315 266.921 326.859 267.503 324.365 267.503C321.268 267.503 318.28 266.32 316.051 264.07C313.731 261.729 312.558 258.571 312.558 255.226C312.558 251.902 313.743 248.772 316.051 246.454C318.284 244.212 321.273 243.032 324.365 243.032C326.449 243.032 328.538 243.424 330.476 244.229C331.31 244.576 332.12 244.994 332.863 245.521L333.094 245.682V250.605H329.346L328.742 249.115C327.361 248.536 325.849 248.25 324.365 248.25C320.478 248.25 317.548 251.132 317.548 255.226C317.548 257.172 318.179 259.012 319.546 260.369C320.844 261.658 322.585 262.285 324.365 262.285C326.136 262.285 327.922 261.903 329.453 260.948C329.862 260.692 330.252 260.395 330.603 260.059C330.697 259.969 330.788 259.875 330.877 259.779C330.904 259.75 330.931 259.719 330.959 259.691C331.223 259.421 331.642 259.486 331.804 259.783ZM342.274 254.692L335.854 243.156H341.201L346.367 252.323L351.533 243.156H356.881L350.461 254.692L357.343 267.379H352.002L346.478 257.257H346.294L340.691 267.379H335.35L342.274 254.692ZM374.529 252.812V252.21C374.529 249.325 372.12 247.961 369.606 247.961C367.793 247.961 366.364 248.066 364.756 248.89L364.492 250.729H360.364V245.823L360.625 245.666C361.917 244.89 363.218 244.194 364.647 243.733C366.268 243.211 367.915 243.032 369.606 243.032C375.648 243.032 379.519 246.542 379.519 252.995V267.379H375.409L374.857 264.382C373.878 265.151 372.856 265.833 371.723 266.361C370.041 267.143 368.29 267.503 366.449 267.503C364.258 267.503 362.134 266.797 360.569 265.152C359.129 263.638 358.43 261.598 358.43 259.482C358.43 257.366 359.129 255.325 360.569 253.812C362.134 252.167 364.258 251.461 366.449 251.461C369.217 251.461 371.973 251.699 374.529 252.812ZM388.283 252.328H399.393V243.156H404.382V267.379H399.393V257.257H388.283V267.379H383.294V243.156H388.283V252.328ZM423.861 252.812V252.21C423.861 249.325 421.452 247.961 418.938 247.961C417.125 247.961 415.696 248.066 414.088 248.89L413.824 250.729H409.696V245.823L409.957 245.666C411.25 244.89 412.55 244.194 413.98 243.733C415.6 243.211 417.247 243.032 418.938 243.032C424.98 243.032 428.851 246.542 428.851 252.995V267.379H424.741L424.189 264.382C423.21 265.151 422.188 265.833 421.055 266.361C419.373 267.143 417.622 267.503 415.781 267.503C413.59 267.503 411.466 266.797 409.901 265.152C408.461 263.638 407.762 261.598 407.762 259.482C407.762 257.366 408.461 255.325 409.901 253.812C411.466 252.167 413.59 251.461 415.781 251.461C418.55 251.461 421.304 251.699 423.861 252.812ZM304.622 259.126V257.677C302.341 256.597 299.39 256.224 296.937 256.224C295.938 256.224 294.87 256.452 294.161 257.24C293.615 257.846 293.394 258.665 293.394 259.482C293.394 260.331 293.734 261.12 294.332 261.697C295.137 262.473 296.26 262.74 297.331 262.74C300.21 262.74 302.608 261.119 304.622 259.126ZM374.529 259.126V257.677C372.248 256.597 369.297 256.224 366.844 256.224C365.846 256.224 364.777 256.452 364.068 257.24C363.522 257.846 363.301 258.665 363.301 259.482C363.301 260.331 363.641 261.12 364.239 261.697C365.045 262.473 366.168 262.74 367.238 262.74C370.117 262.74 372.514 261.119 374.529 259.126ZM423.861 259.126V257.677C421.58 256.597 418.628 256.224 416.176 256.224C415.178 256.224 414.109 256.452 413.4 257.24C412.854 257.846 412.634 258.665 412.634 259.482C412.634 260.331 412.973 261.12 413.571 261.697C414.377 262.473 415.499 262.74 416.571 262.74C419.449 262.74 421.847 261.119 423.861 259.126Z" fill="#F70A12"/>
<path fill-rule="evenodd" clip-rule="evenodd" d="M349.878 179.323C354.8 183.117 358.189 189.904 358.189 195.743C358.189 208.461 347.827 218.842 334.903 218.842H291.652V145.895H332.453C344.67 145.895 354.636 155.575 354.636 167.657C354.636 171.617 352.848 176.242 349.878 179.323ZM390.122 162.061H365.625V145.895H431.794V162.061H407.297V218.842H390.122V162.061ZM474.765 145.53C495.069 145.53 512.748 162.022 512.748 182.247C512.748 202.57 495.22 219.207 474.765 219.207C454.262 219.207 436.658 202.643 436.658 182.247C436.658 161.951 454.413 145.53 474.765 145.53ZM538.461 215.929V231.029H521.287V145.895H535.57L536.741 151.705C542.788 148.313 550.697 145.53 557.066 145.53C566.286 145.53 574.767 149.737 580.908 156.42C587.415 163.501 590.886 172.837 590.886 182.369C590.886 203.331 574.667 219.207 553.392 219.207C548.551 219.207 543.178 217.835 538.461 215.929ZM636.184 145.53C656.488 145.53 674.167 162.022 674.167 182.247C674.167 202.57 656.639 219.207 636.184 219.207C615.682 219.207 598.077 202.643 598.077 182.247C598.077 161.951 615.832 145.53 636.184 145.53ZM699.682 189.053C702.488 196.802 709.556 202.554 718.241 202.554C725.187 202.554 731.67 200.197 736.202 194.905L738.151 192.63L748.695 205.842L747.483 207.347C745.322 210.028 742.171 212.412 739.185 214.099C732.811 217.699 725.544 219.207 718.241 219.207C697.406 219.207 681.359 202.67 681.359 182.247C681.359 162.138 697.452 145.53 717.996 145.53C727.592 145.53 736.609 149.322 743.255 156.122C750.127 163.152 753.652 172.527 753.652 182.247C753.652 183.739 753.595 185.49 753.383 186.966L753.082 189.053H699.682ZM308.826 189.418V202.19H334.903C338.327 202.19 341.015 199.006 341.015 195.743C341.015 192.403 338.375 189.418 334.903 189.418H308.826ZM308.826 162.548V172.766H333.801C334.703 172.656 335.575 171.991 336.137 171.327C337.006 170.301 337.462 168.991 337.462 167.657C337.462 165.022 335.169 162.548 332.453 162.548H308.826ZM474.765 162.548C463.848 162.548 453.832 171.237 453.832 182.247C453.832 193.368 463.697 202.19 474.765 202.19C485.856 202.19 495.574 193.346 495.574 182.247C495.574 171.251 485.7 162.548 474.765 162.548ZM554.639 162.548C548.547 162.663 543.437 164.89 538.461 168.102V197.678C543.576 200.721 548.485 202.19 554.617 202.19C565.854 202.19 573.712 193.183 573.712 182.369C573.712 171.622 565.815 162.56 554.639 162.548ZM636.184 162.548C625.267 162.548 615.251 171.237 615.251 182.247C615.251 193.368 625.117 202.19 636.184 202.19C647.275 202.19 656.994 193.346 656.994 182.247C656.994 171.251 647.119 162.548 636.184 162.548ZM700.481 172.887H734.55C733.489 170.412 731.712 168.233 729.593 166.559C726.307 163.963 722.205 162.548 717.996 162.548C710.558 162.548 703.672 166.447 700.481 172.887Z" fill="white"/>
<path fill-rule="evenodd" clip-rule="evenodd" d="M341.578 64.7979H308.769V121.579H291.59V48.6318H358.757V121.579H341.578V64.7979ZM383.323 91.7903C386.13 99.5393 393.199 105.291 401.887 105.291C408.835 105.291 415.32 102.934 419.853 97.6418L421.802 95.3665L432.35 108.579L431.137 110.083C428.975 112.765 425.824 115.149 422.836 116.835C416.461 120.435 409.192 121.944 401.887 121.944C381.047 121.944 364.995 105.407 364.995 84.9839C364.995 64.8753 381.092 48.2671 401.641 48.2671C411.241 48.2671 420.26 52.059 426.908 58.8586C433.782 65.8892 437.308 75.2635 437.308 84.9839C437.308 86.4762 437.251 88.2267 437.038 89.7024L436.738 91.7903H383.323ZM464.033 118.666V133.708H446.854V48.6318H461.141L462.312 54.4414C468.361 51.05 476.272 48.2671 482.643 48.2671C491.865 48.2671 500.348 52.4738 506.491 59.1565C513 66.2378 516.472 75.5734 516.472 85.1055C516.472 106.068 500.248 121.944 478.967 121.944C474.125 121.944 468.751 120.572 464.033 118.666ZM583.401 82.0598C588.325 85.8537 591.714 92.6409 591.714 98.48C591.714 111.197 581.35 121.579 568.423 121.579H525.16V48.6318H565.972C578.192 48.6318 588.161 58.3118 588.161 70.3933C588.161 74.3537 586.372 78.9788 583.401 82.0598ZM637.294 48.2671C657.605 48.2671 675.289 64.7587 675.289 84.9839C675.289 105.307 657.755 121.944 637.294 121.944C616.787 121.944 599.178 105.38 599.178 84.9839C599.178 64.6878 616.937 48.2671 637.294 48.2671ZM699.732 91.7903C702.539 99.5393 709.609 105.291 718.296 105.291C725.244 105.291 731.729 102.934 736.262 97.6418L738.211 95.3665L748.759 108.579L747.546 110.083C745.385 112.765 742.233 115.148 739.246 116.835C732.87 120.435 725.601 121.944 718.296 121.944C697.456 121.944 681.404 105.407 681.404 84.9839C681.404 64.8753 697.501 48.2671 718.051 48.2671C727.65 48.2671 736.669 52.059 743.317 58.8586C750.191 65.8892 753.717 75.2635 753.717 84.9839C753.717 86.4761 753.66 88.2268 753.448 89.7026L753.147 91.7903H699.732ZM384.122 75.624H418.2C417.139 73.1488 415.362 70.9694 413.242 69.2957C409.955 66.7003 405.852 65.2842 401.641 65.2842C394.201 65.2842 387.313 69.1838 384.122 75.624ZM480.215 65.2842C474.121 65.3995 469.01 67.6266 464.033 70.8391V100.415C469.149 103.457 474.06 104.927 480.192 104.927C491.433 104.927 499.293 95.9197 499.293 85.1055C499.293 74.3592 491.394 65.2963 480.215 65.2842ZM542.339 92.155V104.927H568.423C571.847 104.927 574.536 101.743 574.536 98.48C574.536 95.1401 571.896 92.155 568.423 92.155H542.339ZM542.339 65.2842V75.5024H567.32C568.223 75.393 569.095 74.7273 569.657 74.064C570.526 73.0377 570.983 71.7274 570.983 70.3933C570.983 67.7587 568.688 65.2842 565.972 65.2842H542.339ZM637.294 65.2842C626.375 65.2842 616.356 73.9736 616.356 84.9839C616.356 96.105 626.224 104.927 637.294 104.927C648.389 104.927 658.11 96.0824 658.11 84.9839C658.11 73.9881 648.233 65.2842 637.294 65.2842ZM700.531 75.624H734.609C733.548 73.1488 731.771 70.9694 729.651 69.2957C726.364 66.7003 722.261 65.2842 718.051 65.2842C710.611 65.2842 703.723 69.1838 700.531 75.624Z" fill="white"/>
<path fill-rule="evenodd" clip-rule="evenodd" d="M130.177 203.033C123.876 201.462 119.557 196.465 119.557 189.528C119.557 181.696 125.905 175.348 133.737 175.348C141.569 175.348 147.917 181.696 147.917 189.528C147.917 197.851 141.422 208.047 133.354 209.458C132.537 209.6 131.778 209.396 131.143 208.863C130.509 208.33 130.177 207.617 130.177 206.788V203.033ZM88.198 203.134C93.4207 203.134 97.694 198.86 97.694 193.637V180.69C99.0409 153.47 117.143 156.135 125.39 138.642C138.706 110.392 115.44 65.0395 88.805 64.3594C88.6016 64.3464 88.3998 64.3394 88.198 64.3394C87.996 64.3394 87.7942 64.3494 87.5909 64.3594C60.9558 65.0395 37.6894 110.392 51.0066 138.642C59.2524 156.135 77.3549 153.47 78.7019 180.69V193.637C78.7019 198.86 82.9751 203.134 88.198 203.134ZM172.5 73.8354V110.715C172.5 119.981 161.421 121.924 161.421 110.237C161.421 102.324 163.003 81.7488 163.003 78.5835C163.003 67.6503 146.653 66.4838 145.594 77.0007C145.594 77.0007 142.429 111.82 142.429 126.064C142.429 155.515 171.947 149.996 172.5 180.69V193.637C172.5 206.2 191.492 206.2 191.492 193.637V180.69C192.044 149.996 221.563 155.515 221.563 126.064C221.563 111.82 218.397 77.0007 218.397 77.0007C217.338 66.4838 200.988 67.6503 200.988 78.5835C200.988 81.7488 202.571 102.324 202.571 110.237C202.571 121.924 191.492 119.981 191.492 110.715V73.8354C191.492 61.2724 172.5 61.2727 172.5 73.8354Z" fill="white"/>
<path fill-rule="evenodd" clip-rule="evenodd" d="M791.613 16.8052H1382.2V250.398H791.613V16.8052Z" fill="#F70A12"/>
<path fill-rule="evenodd" clip-rule="evenodd" d="M1215.58 80.4619H1354.85V95.4529H1215.58V80.4619Z" fill="white"/>
<path fill-rule="evenodd" clip-rule="evenodd" d="M818.971 48.6313V120.595H861.162C873.497 120.595 883.338 110.522 883.338 98.2371C883.338 92.335 879.786 85.5798 875.024 82.1057L874.382 81.6367L874.953 81.085C877.854 78.2708 879.779 73.656 879.779 69.6255C879.779 57.9822 870.329 48.6313 858.706 48.6313H818.971ZM833.856 90.6221H861.162C865.298 90.6221 868.453 94.1996 868.453 98.2371C868.453 102.199 865.248 105.974 861.162 105.974H833.856V90.6221ZM833.856 63.252H858.706C862.084 63.252 864.893 66.3077 864.893 69.6255C864.893 72.2811 863.045 75.6909 860.157 75.999H860.123H833.857L833.856 63.252ZM905.208 48.6313H893.011V133.949H907.896V117.033L908.827 117.431C913.462 119.411 918.976 120.965 924.03 120.965C944.718 120.965 960.449 105.317 960.449 84.6143C960.449 66.393 946.953 48.2588 927.713 48.2588C921.073 48.2588 912.993 51.4018 907.326 54.738L906.514 55.2139L905.208 48.6313ZM908.195 69.2507C913.458 65.7651 918.854 63.3693 925.269 63.252C937.154 63.252 945.564 73.0515 945.564 84.6143C945.564 96.2393 937.2 105.974 925.257 105.974C918.859 105.974 913.651 104.394 908.216 101.061L907.896 100.867V69.4485L908.195 69.2507ZM1037.14 90.252L1037.3 89.1321C1037.52 87.6215 1037.56 86.0144 1037.56 84.49C1037.56 64.9258 1023.02 48.2588 1002.98 48.2588C982.993 48.2588 967.421 64.689 967.421 84.49C967.421 104.592 982.934 120.965 1003.23 120.965C1013.29 120.965 1025.16 117.477 1031.63 109.326L1032.27 108.519L1023.15 96.9128L1022.12 98.1382C1017.35 103.801 1010.52 106.346 1003.23 106.346C993.834 106.346 986.113 99.8949 983.292 91.1257L983.012 90.252H1037.14ZM984.03 75.1897C987.295 67.6942 994.906 63.252 1002.98 63.252C1010.53 63.252 1018.37 67.9609 1020.95 75.2334L1021.27 76.1255H983.623L984.03 75.1897ZM1071.8 48.6313H1046.74V120.595H1061.63V62.7554H1062.84L1074.5 95.8252H1094.15L1105.82 62.7554H1107.03V120.595H1121.92V48.6313H1096.86L1084.95 81.6987H1083.59L1071.8 48.6313ZM1133.06 105.974V119.487L1140.25 120.965H1140.38C1146.83 120.965 1152.9 117.597 1155.68 111.672L1163.31 95.4526H1179.84V120.595H1194.73V48.6313H1154.62C1141.9 48.6313 1131.59 59.3411 1131.59 71.98C1131.59 81.6689 1137.5 90.5624 1146.62 93.979L1147.29 94.2319L1142.75 104.146C1142.27 105.25 1141.68 105.974 1140.38 105.974H1133.06ZM1179.84 80.4617H1154.62C1150 80.4617 1146.47 76.5118 1146.47 71.98C1146.47 67.3907 1150.29 63.6223 1154.87 63.6223H1179.84V80.4617ZM850.836 218.944H861.15C878.921 216.383 892.917 200.941 892.917 182.84C892.917 162.914 875.748 146.611 856.005 146.611C836.22 146.611 818.971 162.836 818.971 182.84C818.971 201.004 833.022 216.39 850.836 218.944ZM856.005 161.604C867.625 161.604 878.031 171.005 878.031 182.84C878.031 194.773 867.791 204.323 856.005 204.323C844.246 204.323 833.856 194.798 833.856 182.84C833.856 170.992 844.4 161.604 856.005 161.604ZM930.293 218.944H941.143C958.663 216.539 972.606 202.847 972.606 184.697C972.606 165.326 960.73 150.326 940.607 150.326C932.438 150.326 924.805 153.014 918.116 157.619L915.932 159.123L917.143 156.762C920.774 149.682 927.203 146.298 934.673 144.344C939.908 142.976 945.206 141.854 950.432 140.453C954.292 139.421 958.173 138.172 961.567 136.007L962.169 135.623V119.363H950.954L949.082 125.161L948.864 125.29C947.001 126.382 944.555 127.072 942.479 127.649C938.499 128.755 934.468 129.661 930.463 130.675C903.38 137.526 898.66 157.84 898.66 182.84C898.66 201.401 911.993 216.415 930.293 218.944ZM913.718 175.951C919.981 168.994 928.826 165.317 938.152 165.317C949.353 165.317 957.72 173.436 957.72 184.697C957.72 196.899 947.13 204.323 935.694 204.323C924.025 204.323 913.545 194.524 913.545 182.716V176.142L913.718 175.951ZM1049.3 188.602L1049.46 187.482C1049.67 185.971 1049.72 184.366 1049.72 182.84C1049.72 163.275 1035.18 146.611 1015.14 146.611C995.149 146.611 979.577 163.041 979.577 182.84C979.577 200.854 992.179 216.372 1010.17 218.944H1021.15C1029.48 217.88 1038.43 214.419 1043.79 207.676L1044.43 206.871L1035.31 195.265L1034.28 196.49C1029.51 202.153 1022.68 204.696 1015.38 204.696C1005.99 204.696 998.27 198.247 995.448 189.475L995.168 188.602H1049.3ZM1015.14 161.604C1022.69 161.604 1030.53 166.311 1033.11 173.585L1033.42 174.477H995.779L996.186 173.542C999.451 166.044 1007.06 161.604 1015.14 161.604ZM1126.34 146.983H1067V160.735H1075.31L1067.27 200.539C1066.94 202.19 1065.27 204.82 1063.39 204.82H1055.21V218.944C1081.79 218.944 1108.36 218.944 1134.93 218.944V204.82H1126.34V146.983ZM1081.08 204.82L1090.12 160.735H1111.45V204.82H1081.08ZM1163.27 218.944H1173.74C1181.28 217.93 1187.47 214.856 1193.54 210.354L1194.39 209.72L1196.16 218.944H1208.36V176.154C1208.36 157.079 1196.55 146.611 1177.83 146.611C1166.69 146.611 1159.61 148.921 1150.04 154.463L1149.39 154.84V169.033H1161.64L1162.45 163.627L1162.77 163.471C1167.79 161.034 1172.34 160.735 1177.83 160.735C1185.84 160.735 1193.47 164.965 1193.47 173.799V176.08L1192.55 175.707C1184.76 172.546 1176.34 171.877 1168.01 171.877C1153.95 171.877 1143.38 181.26 1143.38 195.596C1143.38 207.848 1151.23 217.011 1163.27 218.944ZM1193.26 194.869C1186.95 200.856 1179.45 205.687 1170.47 205.687C1164.33 205.687 1157.89 202.526 1157.89 195.596C1157.89 188.657 1162.73 185.507 1169.24 185.507C1176.98 185.507 1185.97 186.615 1193.08 189.797L1193.47 189.974V194.671L1193.26 194.869ZM1240.13 218.944H1255.02V161.107H1279.58V146.983H1215.57V161.107H1240.13V218.944ZM1304.13 146.983H1289.25V218.944H1331.44C1344.46 218.944 1354.85 208.313 1354.85 195.347C1354.85 182.414 1344.36 171.999 1331.44 171.999H1304.13V146.983ZM1304.13 204.323V186.62H1331.44C1336.37 186.62 1340.33 190.372 1340.33 195.347C1340.33 200.288 1336.41 204.323 1331.44 204.323H1304.13Z" fill="white"/>
</svg>
