<svg width="778" height="713" viewBox="0 0 778 713" fill="none" xmlns="http://www.w3.org/2000/svg">
<path d="M347.68 276.323C325.554 304.131 306.719 326.966 305.803 327.062C303.139 327.341 302.729 324.884 303.01 310.184C303.355 292.412 305.561 277.234 309.215 267.692C310.798 263.561 312.017 259.51 311.929 258.677C311.843 257.857 313.237 254.423 315.039 251.057C316.841 247.691 318.552 243.989 318.843 242.812C319.147 241.633 322.287 235.088 325.839 228.264C335.996 208.688 334.656 206.452 311.813 204.913C303.006 204.317 293.26 203.185 290.138 202.394C287.016 201.603 281.138 201.28 277.09 201.664C273.029 202.062 265.525 201.634 260.416 200.734C255.292 199.821 247.216 199.08 242.451 199.083C237.687 199.099 231.143 198.473 227.898 197.695C224.653 196.917 217.592 196.111 212.197 195.903C193.904 195.212 193.126 194.769 199.763 188.906C206.11 183.308 238.071 171.956 266.217 165.315C271.77 164 285.968 161.874 297.755 160.596C326.845 157.419 327.719 156.402 313.329 142.358C310.067 139.177 307.364 136.187 307.315 135.723C307.186 134.493 294.637 119.565 290.664 115.921C288.812 114.209 285.296 109.923 282.866 106.379C280.422 102.837 277.124 98.7902 275.528 97.3968C273.943 95.9883 272.555 94.0758 272.457 93.1467C272.36 92.2176 269.504 86.3288 266.099 80.0832C261.082 70.8434 251.551 51.3581 251.361 49.9415C251.327 49.7516 252.541 49.4723 254.044 49.3146C255.547 49.1568 256.832 49.5606 256.9 50.2028C256.967 50.845 264.524 56.2542 273.7 62.2119C282.876 68.1696 293.046 74.7827 296.307 76.8993C299.57 79.0296 306.591 83.8044 311.927 87.5267C317.263 91.249 323.354 94.5328 325.47 94.8219C328.244 95.1938 329.412 96.1901 329.644 98.4035C330.056 102.325 336.338 107.826 342.528 109.677C345.167 110.478 348.223 112.478 349.296 114.147C350.381 115.801 353.985 119.208 357.286 121.707C361.756 125.078 364.478 126.133 367.866 125.777C372.074 125.335 372.493 124.849 373.309 119.335C374.861 108.978 375.11 107.929 378.084 99.1496C379.674 94.4243 382.006 87.0242 383.253 82.7215C384.501 78.4189 386.555 71.6695 387.814 67.7386C389.087 63.8064 391.837 54.3455 393.938 46.7209C396.039 39.0964 398.374 32.7871 399.139 32.7069C400.82 32.5305 411.175 34.4552 430.865 38.5912C438.888 40.2772 446.345 41.5667 447.438 41.452C451.755 40.9989 451.061 45.575 444.667 59.9353C435.188 81.236 432.779 87.2353 431.408 92.8631C430.74 95.5854 429.09 101.049 427.722 104.992C423.834 116.257 420.171 131.629 421.098 132.83C422.775 134.989 431.324 133 433.421 129.949C434.548 128.311 436.167 126.898 437.015 126.809C437.862 126.72 441.072 124.532 444.143 121.944C447.214 119.357 450.614 117.135 451.692 117.008C452.77 116.881 454.79 115.467 456.196 113.855C457.589 112.259 460.784 110.183 463.283 109.258C465.783 108.332 468.36 106.294 469.026 104.746C470.75 100.642 472.182 99.6766 477.346 99.1209C479.886 98.8406 488.305 95.4844 496.055 91.6736C520.054 79.8724 564.636 63.7287 576.928 62.3973C579.237 62.155 579.488 65.8584 577.281 67.4713C576.306 68.1815 572.534 71.8649 568.9 75.672C565.266 79.4791 557.777 87.2271 552.241 92.919C546.719 98.6096 541.346 104.146 540.313 105.222C539.265 106.299 536.972 108.142 535.215 109.293C529.4 113.122 522.859 118.449 520.71 121.134C519.549 122.582 517.586 123.879 516.342 124.01C515.113 124.139 512.975 125.62 511.619 127.309C508.547 131.071 501.56 137.15 496.377 140.554C494.246 141.965 490.2 144.876 487.387 147.023C484.574 149.183 479.923 152.378 477.068 154.128C474.199 155.88 471.12 158.399 470.224 159.736C469.342 161.072 467.536 162.284 466.21 162.423C464.885 162.562 463.115 163.729 462.256 165.021C460.953 166.953 461.042 167.538 462.776 168.392C463.927 168.962 465.831 169.342 467.006 169.219C468.183 169.109 471.693 169.915 474.792 171.012C477.905 172.109 483.26 173.121 486.714 173.256C490.154 173.392 494.928 174.522 497.337 175.761C499.733 177.001 503.208 177.866 505.066 177.671C506.925 177.489 514.023 179.963 520.838 183.171C530.559 187.745 535.555 191.255 543.983 199.432C549.889 205.167 556.884 212.583 559.527 215.924C562.157 219.267 565.886 223.6 567.804 225.554C570.73 228.562 573.208 235.458 571.432 235.644C569.519 235.845 538.152 230.876 535.977 230.027C534.494 229.45 530.632 228.847 527.398 228.703C521.137 228.407 500.802 225.098 487.374 222.198C482.936 221.24 477.513 220.635 475.327 220.865C473.141 221.094 466.49 220.245 460.54 218.963C454.577 217.683 448.268 216.798 446.505 216.983C444.743 217.168 440.811 216.558 437.771 215.634C432.262 213.946 417.74 212.196 407.132 211.942C402.063 211.811 400.913 212.443 394.727 218.783C390.972 222.617 369.806 248.515 347.68 276.323Z" fill="#32883E"/>
<path d="M347.667 276.229C369.792 248.421 390.958 222.524 394.714 218.69C400.9 212.35 402.049 211.718 407.119 211.849C417.727 212.103 432.249 213.853 437.758 215.54C440.797 216.465 444.729 217.074 446.492 216.889C448.254 216.704 454.563 217.589 460.527 218.87C466.477 220.152 473.128 221.001 475.314 220.772C477.5 220.542 482.923 221.147 487.361 222.104C500.788 225.005 521.124 228.314 527.385 228.61C530.618 228.754 534.48 229.357 535.964 229.933C538.139 230.783 569.506 235.752 571.419 235.551C573.195 235.364 570.717 228.469 567.791 225.461C565.873 223.507 562.144 219.174 559.514 215.831C556.87 212.489 549.876 205.073 543.97 199.339C535.542 191.162 530.546 187.652 520.825 183.078C514.009 179.87 506.912 177.396 505.053 177.578C503.194 177.773 499.719 176.908 497.324 175.667C494.914 174.428 490.141 173.299 486.701 173.163C483.247 173.028 477.891 172.015 474.779 170.919C471.68 169.822 468.17 169.016 466.993 169.125C465.818 169.249 463.913 168.868 462.762 168.299C461.029 167.444 460.94 166.86 462.243 164.927C463.102 163.635 464.872 162.469 466.197 162.33C467.522 162.191 469.329 160.979 470.211 159.643C471.107 158.306 474.185 155.787 477.054 154.035C479.91 152.285 484.561 149.089 487.373 146.929C490.187 144.783 494.233 141.872 496.364 140.46C501.546 137.057 508.533 130.978 511.606 127.216C512.962 125.527 515.099 124.045 516.329 123.916C517.572 123.786 519.536 122.489 520.696 121.041C522.846 118.356 529.387 113.028 535.201 109.2C536.469 108.376 538.016 107.192 539.167 106.187C539.027 107.085 539.735 107.647 541.361 107.476C544.859 107.109 582.068 117.86 597.688 123.75C629.573 135.764 663.576 159.796 684.939 185.402C707.107 211.96 717.119 229.046 729.338 261.11C738.934 286.335 742.464 302.072 745.996 335.337C749.351 367.046 749.245 373.674 744.928 404.144C739.983 439.031 733.776 458.593 718.469 487.412C712.482 498.677 705.642 513.001 703.257 519.233C699.899 528.039 695.384 535.296 683.168 551.579C664.965 575.826 652.124 587.465 623.967 605.186C614.65 611.054 602.39 619.012 596.718 622.881C591.046 626.75 582.529 631.415 577.779 633.268C573.028 635.12 563.215 639.285 555.958 642.533C535.205 651.825 534.414 652.06 490.915 661.142C468.246 665.869 447.863 670.536 445.63 671.502C441.006 673.507 372.409 681.023 370.792 679.701C370.205 679.238 363.364 678.685 355.581 678.493C332.355 677.919 316.975 676.812 308.659 675.101C305.949 674.543 300.881 673.638 297.396 673.079C283.263 670.818 260.892 665.361 258.778 663.649C257.812 662.866 256.221 662.315 255.237 662.418C254.24 662.523 252.311 662.173 250.944 661.653C249.562 661.121 242.944 658.611 236.212 656.058C198.102 641.602 160.471 619.457 130.942 594.1C125.097 589.077 117.021 582.148 112.999 578.702C108.977 575.256 103.544 569.555 100.922 566.031C98.3009 562.508 95.4912 558.769 94.689 557.707C91.0858 552.988 71.4234 520.158 68.9845 514.819C67.51 511.562 64.6585 505.977 62.6548 502.416C54.349 487.637 44.0003 457.076 38.5485 431.319C34.3812 411.616 31.2664 372.588 32.2952 352.906C34.7574 305.682 48.7248 261.076 73.685 220.787C89.0628 195.939 117.735 165.095 141.641 147.668C165.508 130.259 198.373 113.701 220.807 107.783C225.981 106.411 231.222 104.618 232.435 103.8C233.661 102.98 242.875 100.743 252.924 98.8316C266.33 96.2644 271.316 94.8156 271.714 93.3373C272.012 92.2285 269.475 86.2233 266.086 79.9899C269.49 86.2356 272.346 92.1244 272.444 93.0535C272.541 93.9826 273.93 95.8951 275.514 97.3036C277.111 98.6969 280.409 102.744 282.853 106.286C285.283 109.83 288.799 114.116 290.65 115.828C294.624 119.472 307.173 134.4 307.302 135.63C307.35 136.094 310.054 139.084 313.316 142.264C327.706 156.308 326.832 157.326 297.742 160.503C285.955 161.781 271.757 163.906 266.203 165.221C238.058 171.863 206.096 183.215 199.749 188.813C193.112 194.676 193.891 195.119 212.184 195.81C217.579 196.017 224.639 196.823 227.884 197.602C231.129 198.38 237.674 199.006 242.438 198.989C247.203 198.987 255.279 199.728 260.403 200.64C265.512 201.541 273.016 201.969 277.077 201.57C281.125 201.187 287.002 201.51 290.124 202.301C293.246 203.092 302.993 204.224 311.8 204.82C334.643 206.359 335.983 208.595 325.826 228.171C322.274 234.994 319.134 241.54 318.83 242.718C318.539 243.896 316.827 247.598 315.026 250.964C313.224 254.33 311.83 257.764 311.916 258.584C312.004 259.417 310.785 263.468 309.202 267.599C305.548 277.141 303.342 292.318 302.997 310.091C302.716 324.791 303.126 327.248 305.79 326.968C306.705 326.872 325.541 304.037 347.667 276.229ZM387.801 67.6454C389.06 63.7146 391.824 54.2522 393.925 46.6277C391.824 54.2522 389.073 63.7131 387.801 67.6454C386.542 71.5763 384.487 78.3257 383.24 82.6283C381.992 86.9309 379.661 94.3311 378.071 99.0564C375.097 107.836 374.848 108.885 373.296 119.242C372.48 124.756 372.061 125.242 367.853 125.684C364.464 126.039 361.743 124.985 357.273 121.614C353.971 119.115 350.368 115.708 349.282 114.054C348.209 112.385 345.154 110.384 342.514 109.584C336.325 107.733 330.043 102.232 329.631 98.3103C329.399 96.0969 328.231 95.1006 325.457 94.7286C325.106 94.6825 324.664 94.5493 324.133 94.3564L334.122 93.322C340.79 92.6223 353.639 92.5171 362.678 93.0881C371.715 93.6454 379.277 94.0951 379.496 94.0721C379.7 94.0506 381.136 89.7006 382.681 84.4136C384.226 79.1267 386.528 71.5777 387.801 67.6454ZM479.97 98.3641C478.835 98.7319 477.932 98.951 477.332 99.0277C472.169 99.5833 470.737 100.549 469.013 104.653C468.346 106.201 465.77 108.239 463.27 109.165C460.77 110.09 457.576 112.166 456.183 113.762C454.777 115.374 452.757 116.788 451.679 116.915C450.601 117.042 447.201 119.263 444.13 121.851C441.058 124.439 437.848 126.627 437.001 126.716C436.154 126.804 434.534 128.218 433.408 129.855C431.311 132.907 422.761 134.896 421.085 132.737C420.157 131.536 423.821 116.164 427.708 104.898C429.077 100.956 430.727 95.4922 431.395 92.7699C432.31 88.9856 433.704 85.0268 437.421 76.3486C432.135 89.0316 430.438 95.1081 431.752 96.172C433.308 97.4453 455.919 99.0094 472.023 98.9771C475.31 98.9774 477.593 98.8761 479.97 98.3641ZM544.039 101.269C546.268 98.9491 549.223 95.9176 552.228 92.8258C556.393 88.5486 561.677 83.0902 565.575 79.0344C562.289 82.4734 558.285 86.7061 553.49 91.8231C550.061 95.4706 546.42 99.085 544.039 101.269Z" fill="#F70A12"/>
</svg>
