<svg width="1600" height="1200" viewBox="0 0 1600 1200" fill="none" xmlns="http://www.w3.org/2000/svg">
  <defs>
    <linearGradient id="bg" x1="156" y1="102" x2="1440" y2="1100" gradientUnits="userSpaceOnUse">
      <stop stop-color="#149C99"/>
      <stop offset="0.42" stop-color="#29C5BC"/>
      <stop offset="1" stop-color="#8CE9DD"/>
    </linearGradient>
    <radialGradient id="glowLight" cx="0" cy="0" r="1" gradientUnits="userSpaceOnUse" gradientTransform="translate(320 230) rotate(49.03) scale(348.577)">
      <stop stop-color="#DFFFFB" stop-opacity="0.82"/>
      <stop offset="1" stop-color="#DFFFFB" stop-opacity="0"/>
    </radialGradient>
    <radialGradient id="glowDark" cx="0" cy="0" r="1" gradientUnits="userSpaceOnUse" gradientTransform="translate(1300 960) rotate(49.03) scale(312.14)">
      <stop stop-color="#004A5A" stop-opacity="0.26"/>
      <stop offset="1" stop-color="#004A5A" stop-opacity="0"/>
    </radialGradient>
    <pattern id="dots" width="30" height="30" patternUnits="userSpaceOnUse">
      <circle cx="2" cy="2" r="1.5" fill="#FFFFFF" fill-opacity="0.12"/>
      <circle cx="17" cy="17" r="1.2" fill="#FFFFFF" fill-opacity="0.08"/>
    </pattern>
  </defs>

  <rect width="1600" height="1200" rx="80" fill="#1AB0A8"/>
  <rect x="40" y="40" width="1520" height="1120" rx="72" fill="url(#bg)"/>
  <rect x="40" y="40" width="1520" height="1120" rx="72" fill="url(#dots)"/>
  <circle cx="320" cy="230" r="348" fill="url(#glowLight)"/>
  <circle cx="1300" cy="960" r="312" fill="url(#glowDark)"/>

  <text x="140" y="180" fill="#072A2C" fill-opacity="0.72" font-size="34" font-weight="800" letter-spacing="0.18em" font-family="Sora, Manrope, Arial, sans-serif">
    ДОБАВИТЬ НА ЭКРАН
  </text>

  <text fill="#072A2C" font-size="86" font-weight="800" letter-spacing="-0.035em" font-family="Sora, Manrope, Arial, sans-serif">
    <tspan x="140" y="320">Как скачать приложение</tspan>
    <tspan x="140" y="418">на iPhone</tspan>
  </text>

  <text fill="#082328" fill-opacity="0.82" font-size="40" font-weight="500" font-family="Manrope, Arial, sans-serif">
    <tspan x="140" y="506">Сохраните сайт на рабочий стол</tspan>
    <tspan x="140" y="560">и открывайте его как приложение.</tspan>
  </text>

  <g>
    <rect x="140" y="652" width="352" height="198" rx="36" fill="#FFFFFF" fill-opacity="0.18" stroke="#FFFFFF" stroke-opacity="0.26"/>
    <rect x="170" y="684" width="78" height="78" rx="24" fill="#072A2C" fill-opacity="0.12"/>
    <circle cx="209" cy="723" r="18" stroke="#08353A" stroke-width="8"/>
    <path d="M209 701V723L223 733" stroke="#08353A" stroke-width="8" stroke-linecap="round" stroke-linejoin="round"/>
    <text fill="#071F23" font-size="32" font-weight="700" font-family="Manrope, Arial, sans-serif">
      <tspan x="170" y="802">Откройте сайт</tspan>
      <tspan x="170" y="842">в Safari</tspan>
    </text>

    <rect x="520" y="652" width="352" height="198" rx="36" fill="#FFFFFF" fill-opacity="0.18" stroke="#FFFFFF" stroke-opacity="0.26"/>
    <rect x="550" y="684" width="78" height="78" rx="24" fill="#072A2C" fill-opacity="0.12"/>
    <path d="M589 739V707" stroke="#08353A" stroke-width="8" stroke-linecap="round"/>
    <path d="M573 723L589 707L605 723" stroke="#08353A" stroke-width="8" stroke-linecap="round" stroke-linejoin="round"/>
    <path d="M565 743H613C622 743 629 736 629 727V719" stroke="#08353A" stroke-width="8" stroke-linecap="round"/>
    <text fill="#071F23" font-size="32" font-weight="700" font-family="Manrope, Arial, sans-serif">
      <tspan x="550" y="802">Нажмите кнопку</tspan>
      <tspan x="550" y="842">«Поделиться»</tspan>
    </text>

    <rect x="900" y="652" width="352" height="198" rx="36" fill="#FFFFFF" fill-opacity="0.18" stroke="#FFFFFF" stroke-opacity="0.26"/>
    <rect x="930" y="684" width="78" height="78" rx="24" fill="#072A2C" fill-opacity="0.12"/>
    <rect x="955" y="709" width="28" height="28" rx="8" stroke="#08353A" stroke-width="8"/>
    <path d="M969 694V752" stroke="#08353A" stroke-width="8" stroke-linecap="round"/>
    <path d="M953 710L969 694L985 710" stroke="#08353A" stroke-width="8" stroke-linecap="round" stroke-linejoin="round"/>
    <text fill="#071F23" font-size="32" font-weight="700" font-family="Manrope, Arial, sans-serif">
      <tspan x="930" y="802">Выберите</tspan>
      <tspan x="930" y="842">«На экран Домой»</tspan>
    </text>
  </g>

  <text fill="#072A2C" fill-opacity="0.74" font-size="28" font-weight="600" font-family="Manrope, Arial, sans-serif">
    <tspan x="140" y="930">После этого иконка появится на главном экране,</tspan>
    <tspan x="140" y="972">а сайт будет запускаться как отдельное приложение.</tspan>
  </text>

  <g transform="translate(1230 700) rotate(8)">
    <circle cx="-12" cy="-84" r="84" fill="#FFFFFF" fill-opacity="0.24"/>
    <circle cx="-108" cy="122" r="118" fill="#004A5A" fill-opacity="0.14"/>

    <rect x="0" y="0" width="230" height="428" rx="42" fill="#0A5A64" fill-opacity="0.16" stroke="#FFFFFF" stroke-opacity="0.34" stroke-width="2"/>
    <rect x="18" y="18" width="194" height="392" rx="32" fill="url(#phoneScreen)" opacity="0.98"/>
    <rect x="82" y="24" width="66" height="14" rx="7" fill="#06191C" fill-opacity="0.58"/>
    <rect x="38" y="62" width="74" height="18" rx="9" fill="#06545C" fill-opacity="0.18"/>
    <rect x="38" y="98" width="154" height="84" rx="22" fill="#FFFFFF" fill-opacity="0.42"/>
    <rect x="38" y="200" width="154" height="14" rx="7" fill="#06545C" fill-opacity="0.18"/>
    <rect x="38" y="228" width="120" height="14" rx="7" fill="#06545C" fill-opacity="0.18"/>
    <g>
      <rect x="38" y="278" width="58" height="26" rx="13" fill="#06545C" fill-opacity="0.16"/>
      <rect x="104" y="278" width="58" height="26" rx="13" fill="#06545C" fill-opacity="0.16"/>
    </g>
  </g>

  <defs>
    <linearGradient id="phoneScreen" x1="115" y1="18" x2="115" y2="410" gradientUnits="userSpaceOnUse">
      <stop stop-color="#FFFFFF" stop-opacity="0.72"/>
      <stop offset="1" stop-color="#DAFFF9" stop-opacity="0.46"/>
    </linearGradient>
  </defs>
</svg>
