<svg width="113" height="110" viewBox="0 0 113 110" fill="none" xmlns="http://www.w3.org/2000/svg">
<mask id="mask0_196_176" style="mask-type:luminance" maskUnits="userSpaceOnUse" x="0" y="0" width="113" height="110">
<path fill-rule="evenodd" clip-rule="evenodd" d="M28.0839 0.049998L32.9187 0L83.2075 0.0200017C83.971 0.0266684 84.447 0.0366646 84.9195 0.049998C87.4122 0.113331 89.9289 0.253333 92.3942 0.683333C94.8637 1.08896 97.258 1.84831 99.499 2.93667C101.731 4.03 103.779 5.45667 105.549 7.16667C107.32 8.86853 108.803 10.8329 109.942 12.9867C111.107 15.1767 111.836 17.42 112.284 19.8267C112.73 22.2 112.877 24.62 112.942 27.02C112.976 28.12 112.99 29.22 112.993 30.3233L113 32.2867V75.7433C113 77.05 113 78.36 112.993 79.67C112.986 80.77 112.976 81.87 112.942 82.97C112.873 85.37 112.73 87.7933 112.284 90.1633C111.862 92.5451 111.072 94.8511 109.942 97.0033C108.802 99.1577 107.32 101.123 105.549 102.827C103.772 104.536 101.731 105.963 99.499 107.057C97.258 108.145 94.8638 108.905 92.3942 109.31C89.9289 109.737 87.4122 109.877 84.9195 109.943L77.4072 110L29.7925 109.973C29.2229 109.967 28.6533 109.956 28.0839 109.94C25.5912 109.88 23.0746 109.737 20.6093 109.31C18.1408 108.904 15.7477 108.145 13.5078 107.057C9.02422 104.86 5.36714 101.342 3.05766 97.0033C1.92937 94.8504 1.13987 92.5447 0.715622 90.1633C0.270498 87.7933 0.126688 85.37 0.0616314 82.9733C0.0273911 81.8733 0.0171211 80.77 0.010273 79.67L0 77.7V34.25C0 32.9433 8.88103e-07 31.6333 0.010273 30.3267C0.0171211 29.2267 0.0308151 28.1267 0.0616314 27.0233C0.130112 24.6233 0.273922 22.2033 0.715622 19.83C1.13962 17.4486 1.92913 15.1428 3.05766 12.99C5.36376 8.65027 9.02027 5.13146 13.5044 2.93667C15.7454 1.84826 18.1397 1.08891 20.6093 0.683333C23.0746 0.256666 25.5912 0.116665 28.0839 0.049998Z" fill="white"/>
</mask>
<g mask="url(#mask0_196_176)">
<path d="M0 -0.0078125H112.831V112.823H0V-0.0078125Z" fill="#19AA1E"/>
<path fill-rule="evenodd" clip-rule="evenodd" d="M0 -0.0078125H112.831V37.011L0 19.3836V-0.0078125Z" fill="#FFB919"/>
<path fill-rule="evenodd" clip-rule="evenodd" d="M0 100.479L112.831 82.8516V112.821H0V100.479Z" fill="#82D714"/>
<path fill-rule="evenodd" clip-rule="evenodd" d="M0 17.1562L39.3846 23.3101C44.2872 20.2058 50.1197 18.5033 56.4137 18.5033C65.1316 18.5033 72.9675 21.7682 78.6701 27.4981C79.388 28.2229 80.065 28.9785 80.7043 29.7648L112.831 34.7836V39.2451L83.9658 34.7323C86.1262 38.8623 87.2579 43.4526 87.265 48.1135C87.265 54.158 85.9145 60.1853 83.118 66.2366L83.0359 66.4212L81.8461 68.9648H79.0427C73.2444 68.9648 69.4017 70.6981 66.8855 73.7716C64.9128 76.1819 63.7709 79.4366 63.388 82.9853L63.3744 83.0947L63.3197 83.6622L63.2957 83.9084L63.2479 84.3904C63.1009 85.9768 63.0051 87.3204 62.9539 88.4144L112.831 80.6195V85.081L0 102.712V98.2503L49.9316 90.4486L49.9111 89.4468L49.9043 89.1665L49.8974 89.0195L49.8906 88.7973C49.8461 87.5836 49.7333 86.028 49.5556 84.1409L49.5214 83.7819L49.4598 83.1631C49.1043 79.5939 47.9795 76.3016 46.0068 73.8537C43.5214 70.7597 39.7162 68.999 33.9624 68.9648H30.9812L29.7949 66.4212C26.9436 60.3084 25.5624 54.2195 25.5624 48.1135C25.5624 40.4349 28.6769 33.0092 34.1607 27.4981L34.6393 27.0298L0 21.6144V17.1562Z" fill="white"/>
<path fill-rule="evenodd" clip-rule="evenodd" d="M56.4132 22.9062C72.167 22.9062 82.8576 35.0293 82.8576 48.1097C82.8576 53.361 81.7123 58.8242 79.0388 64.5541C63.5414 64.5541 59.7158 75.6516 58.991 82.6396L58.9431 83.1011C58.7004 85.5968 58.5568 87.5968 58.5192 89.1011L54.3209 89.7575V89.6208C54.2624 87.399 54.1119 85.1805 53.8696 82.9712L53.8594 82.8481C53.1893 75.8772 49.4457 64.5541 33.791 64.5541C31.114 58.8242 29.9688 53.361 29.9688 48.1097C29.9688 35.0293 40.6628 22.9062 56.4132 22.9062Z" fill="#0073FA"/>
</g>
</svg>
